<svg width="128" height="128" viewBox="0 0 128 128" xmlns="http://www.w3.org/2000/svg">
  <defs>
    <linearGradient id="pinColors" x1="0" y1="0" x2="0" y2="128" gradientUnits="userSpaceOnUse">
      <stop offset="0" stop-color="#EA4335" />
      <stop offset="0.375" stop-color="#EA4335" />
      <stop offset="0.375" stop-color="#4285F4" />
      <stop offset="0.53125" stop-color="#4285F4" />
      <stop offset="0.53125" stop-color="#FBBC05" />
      <stop offset="0.6875" stop-color="#FBBC05" />
      <stop offset="0.6875" stop-color="#34A853" />
      <stop offset="1" stop-color="#34A853" />
    </linearGradient>
    <filter id="premiumShadow" x="-20%" y="-20%" width="140%" height="140%">
      <feDropShadow dx="0" dy="6" stdDeviation="6" flood-opacity="0.12" />
    </filter>
    <mask id="pinMask">
      <path d="M 64 120 C 64 120, 24 82, 24 48 C 24 25.908, 41.908 8, 64 8 C 86.092 8, 104 25.908, 104 48 C 104 82, 64 120, 64 120 Z" fill="white" />
      <circle cx="64" cy="48" r="18" fill="black" />
      <line x1="16" y1="48" x2="112" y2="48" stroke="black" stroke-width="6" stroke-linecap="round" />
      <line x1="30" y1="68" x2="98" y2="68" stroke="black" stroke-width="6" stroke-linecap="round" />
      <line x1="42" y1="88" x2="86" y2="88" stroke="black" stroke-width="6" stroke-linecap="round" />
      <path d="M 69 39 L 62 39 A 4.5 4.5 0 0 0 57.5 43.5 A 4.5 4.5 0 0 0 62 48 L 66 48 A 4.5 4.5 0 0 1 70.5 52.5 A 4.5 4.5 0 0 1 66 57 L 59 57" fill="none" stroke="white" stroke-width="5" stroke-linecap="round" stroke-linejoin="round" />
    </mask>
  </defs>
  <rect width="128" height="128" rx="28" fill="#FFFFFF" />
  <rect width="128" height="128" rx="28" fill="none" stroke="#F1F3F4" stroke-width="1" />
  <rect width="128" height="128" fill="url(#pinColors)" mask="url(#pinMask)" filter="url(#premiumShadow)" />
</svg>
